<svg xmlns="http://www.w3.org/2000/svg" viewBox="0 0 720 180" width="720" height="180" role="img">
  <title>Finoch Master Logo (Adaptive)</title>
  <style>
    :root {
      --stem: #0B192C;
      --top: #2563EB;
      --mid: #0B192C;
      --node: #0284C7;
      --text: #0B192C;
      --accent: #2563EB;
      --badge-text: #FFFFFF;
    }
    @media (prefers-color-scheme: dark) {
      :root {
        --stem: #FFFFFF;
        --top: #3B82F6;
        --mid: #FFFFFF;
        --node: #38BDF8;
        --text: #FFFFFF;
        --accent: #38BDF8;
        --badge-text: #0A1120;
      }
    }
    .stem { fill: var(--stem); }
    .top { fill: var(--top); }
    .mid { fill: var(--mid); }
    .node { fill: var(--node); }
    .text { fill: var(--text); }
    .accent { fill: var(--accent); }
    .badge-text { fill: var(--badge-text); }
  </style>
  <g id="symbol" transform="translate(25.87, 16.00) scale(0.8043)">
    <path class="stem" d="M 0 23 L 40 0 V 184 H 0 Z" />
    <path class="top" d="M 40 0 H 152 L 126 45 H 40 Z" />
    <path class="mid" d="M 40 78 H 116 L 90 123 H 40 Z" />
    <polygon class="node" points="126,78 152,78 126,123 100,123" />
  </g>
  <g id="wordmark-c" transform="translate(184.12, 50.0)">
    <path class="text" d="M 0 80 V 0 H 60 L 42 24 H 22 V 36 H 50 L 36 56 H 22 V 80 Z" />
    <rect class="text" x="74" y="0" width="22" height="80" rx="3" />
    <path class="text" d="M 110 80 V 0 H 130 L 158 50 V 0 H 178 V 80 H 158 L 130 30 V 80 Z" />
    <path class="text" fill-rule="evenodd" d="M 214 0 H 248 C 268 0 278 10 278 40 C 278 70 268 80 248 80 H 214 C 194 80 184 70 184 40 C 184 10 194 0 214 0 Z M 216 22 H 246 C 254 22 258 28 258 40 C 258 52 254 58 246 58 H 216 C 208 58 204 52 204 40 C 204 28 208 22 216 22 Z" />
    <path class="text" fill-rule="evenodd" d="M 312 0 H 346 L 332 22 H 314 C 306 22 302 28 302 40 C 302 52 306 58 314 58 H 332 L 346 80 H 312 C 292 80 282 70 282 40 C 282 10 292 0 312 0 Z" />
    <path class="text" d="M 360 80 V 0 H 382 V 30 H 406 V 0 H 428 V 80 H 406 V 50 H 382 V 80 Z" />
    <polygon class="accent" points="444,64 458,64 448,80 434,80" />
    <rect class="accent" x="466" y="18" width="44" height="26" rx="6" />
    <path class="badge-text" d="M 476 36 V 26 H 480 V 36 Z M 486 36 V 26 H 492 C 498 26 500 28 500 31 C 500 34 498 36 492 36 Z M 490 28 V 34 H 492 C 494 34 495 33 495 31 C 495 29 494 28 492 28 Z" />
  </g>
</svg>